<?xml version="1.0" standalone="no"?>
<!DOCTYPE svg PUBLIC "-//W3C//DTD SVG 20010904//EN"
 "http://www.w3.org/TR/2001/REC-SVG-20010904/DTD/svg10.dtd">
<svg version="1.0" xmlns="http://www.w3.org/2000/svg"
 width="2400.000000pt" height="2400.000000pt" viewBox="0 0 2400.000000 2400.000000"
 preserveAspectRatio="xMidYMid meet">

<g transform="translate(0.000000,2400.000000) scale(0.100000,-0.100000)"
fill="#000000" stroke="none">
<path d="M11685 21029 c-541 -49 -1014 -183 -1479 -418 -568 -288 -1074 -710
-1421 -1186 -323 -443 -519 -991 -624 -1746 -88 -632 -94 -1327 -15 -1634 41
-156 98 -245 174 -272 l49 -17 26 -111 c134 -573 363 -1080 643 -1429 297
-370 684 -682 1152 -928 826 -436 1854 -553 2769 -317 63 16 117 32 120 35 7
7 -70 -3 -149 -18 -30 -6 -98 -12 -150 -13 -55 -1 -105 -7 -119 -14 -13 -7
-21 -8 -17 -3 4 7 -35 11 -116 11 -119 0 -197 6 -228 18 -19 7 -50 12 -120 17
-30 3 -82 12 -115 21 -33 9 -69 18 -80 20 -11 2 -22 4 -25 5 -9 4 -25 7 -43 8
-10 1 -15 7 -12 12 4 6 3 10 -2 9 -26 -5 -64 3 -76 15 -11 11 -17 12 -26 3 -7
-7 -11 -8 -11 0 0 11 -54 27 -79 24 -8 -2 -12 3 -8 12 3 9 0 18 -8 21 -8 3
-15 0 -17 -6 -3 -7 -13 -5 -29 5 -14 9 -34 18 -45 20 -12 1 -29 10 -38 19 -9
9 -25 20 -37 23 -11 4 -18 13 -15 20 3 9 -4 12 -25 11 -21 -2 -33 4 -40 17 -8
14 -14 16 -24 7 -10 -9 -15 -6 -20 9 -3 12 -12 21 -19 21 -7 0 -22 13 -34 30
-14 18 -28 27 -37 24 -10 -4 -15 0 -15 14 0 15 -5 18 -25 14 -15 -2 -25 0 -25
7 0 7 -4 10 -9 7 -5 -3 -16 9 -25 27 -8 17 -16 26 -16 20 0 -7 -5 -13 -11 -13
-6 0 -8 7 -5 16 3 8 2 12 -4 9 -6 -3 -10 4 -10 15 0 15 -5 20 -14 17 -8 -3
-17 1 -20 8 -3 8 -14 12 -24 10 -13 -2 -23 5 -31 21 -6 14 -14 23 -19 20 -10
-6 -47 22 -39 31 4 3 -3 11 -16 18 -12 6 -21 17 -19 25 2 7 -3 10 -12 7 -11
-4 -13 -1 -9 10 5 12 2 15 -8 11 -15 -6 -42 16 -32 26 6 5 -21 10 -39 7 -5 0
-8 4 -8 10 0 6 -7 8 -16 5 -8 -3 -12 -2 -9 3 3 5 1 12 -4 16 -6 3 -8 12 -4 20
3 10 -1 15 -16 15 -13 0 -26 11 -37 31 -12 25 -18 29 -25 18 -7 -9 -8 -5 -3
14 4 18 2 27 -6 27 -6 0 -25 14 -42 30 -16 17 -34 30 -40 30 -6 0 -5 7 3 17 8
9 9 14 3 10 -6 -3 -20 1 -30 9 -10 9 -13 13 -6 9 6 -3 12 -3 12 2 0 12 -20 39
-20 28 0 -5 -6 1 -13 15 -8 14 -18 24 -24 23 -6 -1 -14 4 -17 12 -3 8 -1 15 4
15 6 0 10 5 10 12 0 6 -3 9 -6 5 -10 -10 -47 31 -51 55 -2 13 -8 25 -13 26 -6
2 -10 10 -10 18 0 9 -4 12 -10 9 -5 -3 -10 -1 -10 5 0 6 -12 23 -26 38 -15 15
-23 21 -20 15 10 -19 1 -16 -15 4 -10 11 -10 14 -1 9 6 -4 12 -2 12 3 0 6 -7
11 -15 11 -8 0 -15 3 -14 8 2 14 -13 52 -21 52 -4 0 -11 11 -14 25 -4 14 -11
23 -16 20 -6 -3 -10 -2 -10 4 0 5 6 11 13 14 7 3 4 8 -10 13 -12 5 -23 14 -23
19 -1 6 -6 9 -12 7 -5 -1 -7 2 -4 7 4 5 2 12 -3 15 -8 5 -25 63 -22 78 0 4 -6
5 -14 2 -14 -6 -21 18 -16 49 1 5 -2 6 -7 3 -5 -3 -23 7 -41 23 -31 28 -42 48
-18 35 6 -3 -1 6 -16 21 -23 21 -26 30 -16 41 10 12 9 13 -6 8 -13 -5 -16 -4
-11 4 4 7 3 12 -2 12 -6 0 -8 9 -5 20 4 16 -2 23 -27 31 -24 9 -28 14 -18 21
10 7 9 11 -7 23 -11 9 -25 13 -33 10 -7 -2 -11 -1 -7 4 7 13 -5 42 -15 36 -5
-3 -11 -1 -15 5 -3 5 0 10 7 10 9 0 9 3 -2 10 -8 5 -11 10 -6 10 5 0 1 9 -8
19 -10 11 -15 24 -11 30 3 6 0 9 -8 6 -7 -3 -22 4 -33 16 -10 13 -13 19 -5 14
11 -6 13 -4 7 10 -5 15 -4 16 9 5 8 -7 15 -8 15 -2 0 5 -7 15 -15 22 -17 14
-21 35 -5 25 6 -3 7 1 3 10 -4 12 -8 13 -13 5 -6 -9 -9 -9 -15 0 -4 7 -1 16 6
21 11 7 10 9 -3 9 -10 0 -19 5 -19 10 -1 6 -2 15 -3 22 0 6 -7 13 -15 16 -8 3
-11 0 -7 -7 4 -6 4 -11 -1 -11 -12 1 -48 30 -36 30 20 0 1 46 -25 64 -15 10
-20 15 -10 13 27 -9 29 4 3 25 -29 23 -32 45 -7 51 16 4 16 5 0 6 -15 1 -17 7
-12 36 4 25 2 35 -7 33 -7 -2 -14 6 -16 17 -3 11 -7 27 -10 35 -4 8 -7 17 -7
20 -1 3 -7 15 -14 28 -11 19 -10 22 5 23 11 0 13 3 5 6 -6 2 -10 9 -6 14 3 5
0 9 -5 9 -6 0 -11 7 -11 15 0 8 -4 15 -8 15 -4 0 -9 10 -9 22 -2 16 0 19 6 9
7 -10 10 -11 16 -1 5 8 1 18 -10 27 -15 10 -20 10 -27 0 -4 -6 -8 -7 -8 -2 0
6 5 16 10 21 7 7 5 17 -6 30 -15 18 -15 18 -4 -3 8 -18 8 -22 -4 -17 -16 6
-13 38 6 63 11 14 11 14 -2 5 -20 -15 -58 -3 -38 13 7 6 19 12 27 15 11 3 11
7 -2 20 -9 9 -14 25 -12 37 2 12 0 19 -6 16 -5 -4 -9 3 -9 15 0 14 4 19 13 14
8 -5 7 -2 -2 10 -11 13 -16 14 -23 4 -7 -9 -8 -4 -5 15 2 15 0 30 -6 34 -6 4
-7 1 -3 -8 4 -8 0 -5 -9 6 -12 15 -13 21 -3 24 18 6 37 33 37 51 0 8 -4 5 -10
-8 -5 -13 -14 -20 -19 -17 -8 5 -7 12 2 23 10 12 10 14 1 8 -8 -4 -13 -1 -13
9 0 9 4 13 10 10 6 -3 7 1 4 9 -3 9 -10 13 -15 10 -5 -3 -9 -1 -9 4 0 17 13
22 29 9 14 -11 14 -10 2 5 -7 10 -10 25 -7 34 7 18 -17 58 -28 46 -4 -4 -6 0
-4 8 2 8 12 23 23 33 20 18 20 18 -4 7 -14 -8 -21 -8 -17 -2 4 6 -2 16 -11 22
-15 10 -15 11 -1 6 22 -6 30 4 17 20 -6 8 -9 20 -6 29 4 8 -1 19 -11 25 -15 9
-15 12 8 29 20 16 22 21 10 26 -9 3 -16 15 -17 26 -2 19 -1 19 16 -2 14 -17
18 -19 18 -6 0 9 -3 14 -7 12 -3 -2 -11 5 -18 16 -9 14 -9 19 0 19 6 0 8 3 5
7 -4 3 1 12 11 20 9 7 13 13 7 12 -23 -3 -30 2 -30 25 0 19 3 22 13 13 10 -8
12 -7 10 4 -2 8 -7 17 -11 20 -4 3 -3 18 3 34 7 19 8 31 0 39 -12 12 -13 29
-1 22 10 -7 19 22 13 47 -2 9 -8 14 -14 10 -8 -4 -9 0 -5 12 4 9 2 25 -5 34
-12 14 -11 14 5 2 15 -12 17 -11 17 7 0 11 5 22 11 24 9 3 9 10 0 26 -7 13
-16 20 -22 17 -5 -4 -9 0 -9 7 0 10 -2 10 -9 -1 -5 -8 -11 -9 -15 -3 -10 16
-47 10 -41 -6 4 -10 0 -12 -11 -8 -11 4 -15 2 -11 -8 4 -11 0 -13 -15 -11 -26
5 -32 11 -19 20 6 3 11 0 12 -7 0 -7 4 -4 9 8 8 20 76 61 93 56 5 -1 6 2 2 7
-7 13 41 45 54 36 7 -3 8 0 5 9 -3 9 -1 16 5 16 6 0 41 20 79 44 113 72 282
155 532 261 365 155 536 255 680 397 89 89 212 249 406 528 232 337 604 595
1034 720 183 53 276 65 505 64 297 -2 470 -34 975 -181 124 -36 284 -83 357
-104 157 -45 398 -100 578 -131 178 -30 451 -33 508 -4 113 56 173 218 147
393 -46 305 -281 662 -689 1047 -796 750 -1757 1141 -2790 1135 -119 -1 -256
-5 -306 -10z m383 -6 c-10 -2 -26 -2 -35 0 -10 3 -2 5 17 5 19 0 27 -2 18 -5z
m262 -32 c36 -3 -57 -6 -207 -6 -149 0 -269 3 -266 8 5 8 379 7 473 -2z m-491
-5 c-2 -2 -51 -6 -109 -9 -61 -3 -97 -2 -85 3 19 8 203 14 194 6z m-256 -13
c-7 -2 -19 -2 -25 0 -7 3 -2 5 12 5 14 0 19 -2 13 -5z m750 -18 c141 -18 277
-53 397 -101 74 -30 104 -49 166 -105 42 -38 80 -69 86 -69 27 0 41 -35 50
-128 16 -185 52 -250 193 -343 103 -69 111 -79 82 -101 -19 -15 -20 -18 -5
-23 9 -4 19 -13 22 -21 5 -12 1 -12 -27 0 -18 7 -61 25 -96 40 -35 15 -76 29
-92 31 -39 5 -111 57 -148 107 -55 75 -72 138 -78 288 -2 74 -9 149 -14 167
-30 96 -255 202 -509 238 -135 19 -437 19 -725 0 -121 -8 -236 -14 -255 -14
-150 4 430 46 657 48 112 1 226 -5 296 -14z m-123 -31 c85 -6 251 -43 325 -72
47 -19 56 -21 80 -27 47 -10 125 -42 151 -62 48 -36 74 -100 74 -180 0 -130
18 -234 50 -300 44 -88 115 -147 279 -232 97 -50 126 -69 100 -64 -31 4 -37 2
-42 -17 -8 -29 -34 -24 -159 29 -51 21 -104 42 -118 45 -24 7 -24 6 5 -19 l30
-27 -35 17 c-166 82 -226 199 -236 465 -6 163 -19 213 -67 260 -43 42 -148 94
-249 124 -177 51 -380 58 -788 26 -140 -11 -284 -19 -320 -19 l-65 1 50 8 c28
5 122 14 210 21 88 6 230 17 315 24 148 12 242 12 410 -1z m10 -44 c154 -18
323 -83 392 -152 48 -48 65 -108 73 -268 7 -153 25 -245 62 -312 49 -89 126
-138 411 -258 56 -24 101 -44 100 -46 -2 -1 -31 7 -65 18 l-63 21 -26 -26 -25
-25 -72 19 c-40 11 -116 38 -171 60 -104 41 -116 44 -116 30 0 -16 58 -52 136
-86 40 -18 71 -34 68 -37 -3 -3 10 -11 28 -17 55 -19 298 -124 295 -127 -1 -2
-32 7 -67 20 -112 41 -251 71 -259 57 -4 -7 -12 -11 -17 -10 -5 1 -11 0 -14
-1 -3 -1 -14 -3 -25 -5 -11 -2 -39 -9 -62 -15 -36 -11 -50 -9 -106 9 -68 23
-170 89 -181 116 -9 23 -26 8 -26 -22 0 -36 80 -112 152 -146 30 -14 93 -36
139 -47 160 -41 246 -70 264 -90 22 -25 31 -25 -144 5 -153 26 -289 64 -354
97 -32 16 -52 18 -117 14 -75 -6 -80 -5 -98 19 -11 13 -30 50 -42 80 -12 31
-24 54 -25 53 -2 -2 -3 -6 -2 -9 1 -3 -4 -13 -11 -22 -25 -30 25 -166 95 -257
28 -36 31 -46 19 -48 -9 -2 -16 -11 -16 -20 0 -12 -5 -10 -17 8 -9 14 -26 36
-39 50 -13 14 -39 56 -58 93 -24 45 -36 61 -36 46 0 -12 -3 -20 -6 -16 -3 3
-16 2 -29 -3 -34 -13 -64 -1 -72 29 -4 14 -11 55 -17 90 -12 73 -31 90 -41 37
-7 -33 8 -210 22 -264 4 -16 2 -23 -5 -18 -6 3 -13 20 -17 37 -4 17 -13 42
-21 57 -8 15 -14 33 -14 41 0 11 -4 9 -15 -5 -13 -16 -16 -17 -25 -4 -5 8 -10
10 -10 4 0 -13 -36 -12 -50 2 -5 5 -12 63 -15 129 -3 66 -8 131 -11 145 -11
53 -25 -11 -30 -138 -7 -159 -10 -178 -29 -162 -8 7 -15 9 -15 4 0 -5 -4 -3
-9 5 -5 8 -15 16 -23 17 -46 8 -71 14 -76 18 -2 3 -9 70 -13 148 -18 303 -44
422 -108 487 -81 83 -187 78 -604 -25 -240 -60 -423 -91 -387 -65 9 6 15 26
15 48 0 35 2 38 30 40 89 8 203 31 410 83 254 65 378 90 436 90 21 0 41 5 44
10 13 22 -138 9 -300 -25 -323 -68 -545 -84 -545 -40 0 31 30 42 126 49 106 7
256 35 484 89 237 57 468 72 543 37 21 -10 20 -9 -2 7 -31 22 -42 25 -131 30
-93 6 -222 -10 -405 -48 -200 -42 -242 -49 -326 -50 -77 0 -147 6 -155 14 -12
12 67 47 106 47 60 0 231 26 390 60 365 77 624 82 728 14 28 -18 65 -27 57
-13 -13 20 -118 61 -182 71 -100 16 -293 3 -498 -32 -362 -63 -425 -69 -425
-46 0 30 30 43 132 55 56 7 162 23 233 36 400 73 644 76 800 12 62 -25 163
-99 195 -143 35 -47 46 -42 18 8 -25 46 -97 106 -166 138 -93 44 -158 55 -337
54 -161 0 -256 -10 -520 -50 -121 -18 -273 -23 -277 -9 -2 6 21 11 52 13 30 1
69 7 85 12 35 11 53 14 200 35 561 80 812 65 1002 -60 74 -49 104 -94 130
-194 l22 -86 0 59 c2 127 -48 199 -181 264 -123 59 -188 73 -383 79 -140 4
-213 0 -410 -21 -335 -35 -411 -41 -419 -28 -4 7 18 13 61 17 81 7 315 33 428
47 98 12 360 24 435 20 30 -1 93 -7 140 -12z m658 -9 c156 -57 238 -129 263
-234 13 -56 31 -90 65 -123 12 -11 27 -31 33 -42 7 -12 18 -22 26 -22 9 0 15
-10 15 -25 0 -13 7 -28 17 -33 9 -6 17 -24 19 -46 1 -20 7 -43 14 -51 6 -8 8
-20 4 -27 -4 -7 -4 -10 0 -6 4 3 27 -8 50 -26 23 -17 63 -40 90 -50 26 -10 45
-20 43 -22 -2 -2 -51 14 -110 36 -58 22 -117 40 -130 40 -28 0 -89 46 -124 93
-41 55 -54 98 -64 215 -9 117 -25 171 -62 210 -37 41 -107 84 -181 113 -94 37
-71 37 32 0z m402 -147 c26 -28 60 -75 75 -105 74 -145 156 -231 305 -319 50
-29 90 -54 90 -56 0 -2 -35 14 -77 35 -43 22 -105 49 -138 61 -44 17 -75 37
-115 79 -47 47 -62 73 -99 166 -40 100 -50 116 -110 174 -64 63 -65 64 -23 41
24 -14 65 -47 92 -76z m-2310 -74 c0 -5 -5 -10 -11 -10 -5 0 -7 5 -4 10 3 6 8
10 11 10 2 0 4 -4 4 -10z m2838 -300 c34 -23 62 -45 62 -47 0 -6 -9 0 -125 76
-55 36 -121 86 -146 112 -41 43 -119 149 -119 163 0 3 60 -54 133 -127 72 -73
160 -153 195 -177z m-28 134 c25 -23 61 -56 80 -74 20 -18 9 -13 -25 14 -33
25 -80 67 -105 93 -48 51 -24 35 50 -33z m-3060 16 c24 -8 24 -8 -5 -9 -16 0
-37 4 -45 9 -12 8 -11 10 5 9 11 -1 31 -5 45 -9z m-363 -56 c-3 -3 -12 -4 -19
-1 -8 3 -5 6 6 6 11 1 17 -2 13 -5z m156 -73 c31 -11 77 -23 103 -27 38 -5 43
-9 29 -17 -45 -25 -205 14 -205 50 0 17 7 16 73 -6z m966 -77 c83 -33 113
-100 131 -289 13 -144 13 -435 0 -435 -5 0 -10 5 -10 11 0 6 -6 9 -14 6 -10
-4 -16 6 -20 38 -9 60 -26 72 -73 54 -15 -6 -23 -5 -23 2 0 6 -7 9 -15 5 -8
-3 -15 -4 -15 -2 0 23 -44 234 -55 267 -51 145 -149 190 -337 155 -48 -9 -185
-46 -303 -81 -221 -66 -319 -87 -165 -36 47 16 79 29 72 30 -7 1 -10 6 -7 11
4 6 1 17 -5 25 -6 8 -9 19 -5 26 5 8 -4 10 -34 6 -72 -8 -44 7 57 31 87 21
341 93 497 142 46 14 53 19 31 19 -49 1 -21 13 66 27 96 15 169 11 227 -12z
m-1289 -38 c-48 -18 -138 -64 -175 -89 -23 -16 -27 -17 -16 -4 17 21 187 107
210 106 9 0 0 -6 -19 -13z m165 -85 c28 -11 73 -27 100 -35 42 -12 46 -15 28
-21 -14 -5 -20 -12 -16 -23 5 -12 2 -14 -13 -8 -10 4 -40 11 -66 16 -56 11
-131 47 -123 60 3 5 1 11 -5 15 -5 3 -10 11 -10 17 0 14 43 5 105 -21z m-375
-25 c0 -2 -8 -10 -17 -17 -16 -13 -17 -12 -4 4 13 16 21 21 21 13z m567 -62
c-3 -3 -12 -4 -19 -1 -8 3 -5 6 6 6 11 1 17 -2 13 -5z m672 -49 c43 -21 87
-78 105 -132 29 -90 55 -345 38 -372 -18 -27 -49 22 -62 97 -16 98 -53 134
-136 133 -12 0 -27 6 -34 14 -7 8 -21 15 -32 15 -10 0 -30 7 -43 16 -24 16
-45 22 -78 23 -11 1 -15 6 -11 12 4 8 -1 9 -16 4 -14 -5 -20 -3 -16 3 3 6 -7
13 -24 17 -16 4 -32 11 -35 16 -4 5 -13 9 -22 9 -9 0 -26 9 -38 20 l-22 21
-162 -50 c-89 -28 -178 -53 -199 -56 -20 -3 -3 5 38 18 41 13 143 49 225 79
83 31 182 68 220 82 39 14 64 25 56 25 -25 1 -5 11 40 21 57 12 173 4 208 -15z
m-992 -161 c40 -11 72 -23 70 -28 -2 -5 -24 -14 -49 -21 -73 -18 -157 15 -158
64 0 16 30 12 137 -15z m160 -60 c-3 -3 -12 -4 -19 -1 -8 3 -5 6 6 6 11 1 17
-2 13 -5z m531 -89 c32 -10 66 -29 86 -50 37 -37 76 -136 76 -196 0 -33 -2
-36 -24 -32 -17 4 -30 20 -47 56 -75 161 -190 190 -439 108 -68 -22 -125 -39
-127 -37 -2 1 41 20 95 41 53 21 121 52 151 69 51 28 126 54 162 55 8 1 39 -6
67 -14z m-498 -165 c-8 -5 -19 -10 -25 -10 -5 0 -3 5 5 10 8 5 20 10 25 10 6
0 3 -5 -5 -10z m279 -228 c14 -10 34 -30 44 -44 18 -24 18 -28 4 -42 -22 -22
-47 -20 -104 9 -26 13 -65 26 -85 27 -21 1 -38 4 -38 6 0 11 32 61 42 66 24
11 113 -4 137 -22z m2478 -38 c92 -26 204 -89 282 -159 39 -36 79 -65 89 -65
38 0 203 -66 217 -88 19 -26 32 -117 18 -125 -5 -3 -52 5 -103 19 -115 30
-114 30 -130 -1 -7 -14 -17 -25 -21 -25 -4 0 -2 12 6 26 7 15 11 33 8 40 -3 8
1 14 11 14 30 0 0 35 -40 48 -43 13 -54 9 -54 -19 0 -12 -7 -19 -20 -19 -11 0
-20 4 -20 9 0 5 -9 13 -20 16 -16 5 -20 15 -20 50 0 24 -5 47 -10 50 -6 4 -19
23 -29 44 -31 60 -156 140 -284 181 -37 12 -67 23 -67 26 0 9 133 -6 187 -22z
m-102 -147 c47 -17 113 -62 151 -101 20 -20 39 -34 45 -31 5 3 6 -1 3 -9 -3
-9 -9 -15 -12 -14 -4 1 -15 -2 -25 -7 -10 -4 -55 -1 -100 6 -125 21 -448 18
-567 -5 -91 -18 -97 -20 -137 -65 -23 -25 -42 -40 -43 -33 0 6 4 12 9 12 6 0
20 18 32 40 13 22 27 40 31 40 5 0 6 22 2 48 l-6 48 88 27 c122 36 192 49 309
56 115 7 178 4 220 -12z m798 -71 c24 -28 59 -76 78 -107 27 -45 44 -61 83
-79 27 -12 68 -34 90 -49 37 -23 40 -28 26 -41 -12 -12 -28 -13 -75 -8 -71 10
-82 6 -87 -24 -2 -14 -11 -24 -23 -26 -19 -3 -19 -2 -2 11 9 8 17 19 17 25 0
13 -51 42 -73 42 -10 0 -19 21 -27 68 -15 80 -36 136 -65 177 -62 84 -12 94
58 11z m-1537 -71 c8 -31 -4 -84 -15 -67 -10 17 -56 0 -91 -32 -14 -13 -67
-43 -117 -66 -51 -24 -95 -50 -98 -59 -3 -9 -14 -27 -25 -41 -15 -18 -12 -7
10 40 16 36 30 73 30 82 0 21 40 50 124 89 36 17 66 37 66 44 0 7 17 17 38 23
60 16 71 14 78 -13z m1959 -29 c59 -11 158 -202 141 -271 -6 -22 -8 -22 -41
-12 -23 7 -37 18 -40 31 -19 98 -32 138 -57 184 -17 28 -26 52 -22 52 4 0 -1
7 -12 16 -19 15 -19 16 1 9 11 -4 25 -8 30 -9z m-2351 -98 c12 -45 6 -78 -16
-96 -12 -9 -41 -37 -63 -60 -22 -24 -71 -67 -109 -95 -53 -39 -74 -62 -92
-102 -13 -27 -23 -44 -23 -37 -1 8 12 44 28 80 16 37 32 79 36 94 5 19 28 40
80 73 75 47 85 59 85 101 0 26 32 64 54 64 7 0 16 -10 20 -22z m2737 -115 c5
-15 9 -47 7 -72 -3 -43 -4 -44 -20 -27 -13 12 -18 33 -18 72 0 58 14 71 31 27z
m-3054 -125 c-6 -77 -8 -83 -40 -109 -19 -16 -46 -52 -61 -82 -15 -29 -40 -66
-55 -83 -65 -70 -109 -135 -131 -195 -13 -35 -25 -59 -27 -52 -2 6 8 45 22 85
15 40 37 106 48 145 20 65 30 81 94 147 60 61 74 82 83 122 9 41 51 104 68
104 3 0 2 -37 -1 -82z m2803 28 c0 -11 -19 -15 -25 -6 -3 5 1 10 9 10 9 0 16
-2 16 -4z m-3114 -341 c-7 -109 -13 -138 -26 -130 -11 7 -53 -61 -74 -120 -23
-64 -57 -117 -116 -180 -25 -27 -59 -79 -74 -115 -16 -36 -33 -69 -38 -75 -5
-5 4 22 20 60 16 39 39 102 52 140 22 67 49 116 137 252 29 44 44 82 53 130
12 61 50 143 67 143 3 0 3 -47 -1 -105z m-320 -347 c-3 -13 -8 -45 -11 -72 -4
-31 -23 -75 -53 -126 -26 -43 -48 -77 -50 -75 -9 9 54 216 76 252 30 47 45 55
38 21z m-1361 -1256 c-3 -3 -11 0 -18 7 -9 10 -8 11 6 5 10 -3 15 -9 12 -12z
m-20 -522 c3 -6 -1 -7 -9 -4 -18 7 -21 14 -7 14 6 0 13 -4 16 -10z m160 -788
c-3 -3 -11 0 -18 7 -9 10 -8 11 6 5 10 -3 15 -9 12 -12z m480 -862 c3 -5 1
-10 -4 -10 -6 0 -11 5 -11 10 0 6 2 10 4 10 3 0 8 -4 11 -10z"/>
<path d="M9626 16502 c-3 -5 1 -9 9 -9 8 0 15 4 15 9 0 4 -4 8 -9 8 -6 0 -12
-4 -15 -8z"/>
<path d="M9883 15152 c1 -14 5 -18 11 -12 7 7 6 14 -1 21 -9 9 -12 7 -10 -9z"/>
<path d="M13080 13026 c0 -2 9 -6 20 -9 11 -3 18 -1 14 4 -5 9 -34 13 -34 5z"/>
<path d="M11770 12069 c-534 -21 -1079 -127 -1600 -312 -1011 -360 -1966
-1059 -2455 -1797 -377 -568 -649 -1315 -769 -2105 -160 -1063 10 -2189 480
-3173 179 -375 374 -658 644 -936 744 -764 1827 -1303 2935 -1460 290 -41 431
-50 755 -49 568 1 1040 71 1576 233 1101 335 2168 1082 2741 1920 202 295 403
712 538 1115 216 649 316 1336 285 1960 -12 238 -36 454 -51 470 -6 5 -7 -1
-13 -49 -1 -17 -8 -32 -14 -34 -6 -2 -8 -10 -5 -18 5 -13 7 -13 15 -2 8 10 9
10 5 -2 -2 -8 -9 -15 -15 -15 -6 0 -19 -11 -29 -24 -12 -18 -12 -22 -2 -16 12
7 12 6 -1 -9 -8 -10 -19 -28 -25 -40 -6 -11 -19 -20 -28 -20 -12 1 -17 -6 -17
-22 0 -13 -5 -24 -11 -24 -6 0 -9 7 -5 15 3 8 1 15 -4 15 -6 0 -10 -8 -10 -17
0 -10 -10 -26 -23 -38 -13 -11 -17 -16 -9 -11 9 7 12 5 10 -5 -5 -21 -21 -29
-35 -17 -10 8 -13 5 -13 -10 0 -16 -4 -20 -17 -15 -16 6 -16 5 -5 -10 18 -22
7 -40 -17 -27 -15 8 -18 5 -15 -16 2 -20 0 -23 -11 -14 -11 9 -19 6 -37 -13
-13 -13 -30 -27 -38 -31 -9 -3 -6 -5 7 -2 19 3 20 1 10 -15 -7 -12 -15 -15
-22 -9 -8 7 -12 5 -12 -6 0 -11 7 -14 24 -9 18 4 23 1 23 -14 0 -24 -16 -36
-26 -20 -5 8 -3 9 6 4 9 -5 11 -4 6 4 -14 21 -66 -1 -66 -28 0 -6 -5 -11 -11
-11 -6 0 -9 -7 -5 -15 8 -21 -14 -19 -31 3 -13 16 -13 15 -7 -7 4 -18 3 -22
-7 -16 -9 6 -11 4 -6 -8 3 -9 1 -19 -5 -23 -6 -4 -8 -3 -5 3 4 6 -2 13 -13 16
-11 3 -22 1 -25 -3 -3 -5 3 -11 12 -13 10 -3 1 -5 -19 -4 -21 1 -40 -2 -44 -6
-4 -4 -2 -7 4 -7 6 0 0 -12 -13 -26 -13 -14 -29 -23 -34 -19 -7 4 -8 0 -4 -11
4 -12 3 -15 -5 -10 -7 4 -12 2 -12 -3 0 -6 -9 -11 -19 -11 -14 0 -21 -8 -24
-27 l-4 -28 -2 28 c-1 19 -6 27 -18 26 -11 0 -13 -3 -5 -6 15 -6 16 -33 1 -33
-5 0 -7 6 -3 13 4 7 3 9 -2 4 -5 -5 -9 -14 -9 -20 0 -7 -7 -12 -16 -12 -9 0
-25 -7 -35 -15 -10 -9 -15 -10 -10 -2 4 6 2 12 -3 12 -6 0 -11 -5 -11 -11 0
-5 -4 -7 -10 -4 -5 3 -10 1 -10 -5 0 -7 -7 -10 -14 -7 -10 4 -13 1 -10 -8 4
-10 0 -13 -15 -10 -12 2 -20 -1 -18 -8 1 -7 -9 -12 -23 -12 -19 0 -24 -5 -22
-20 2 -16 1 -17 -7 -5 -6 8 -11 11 -11 5 0 -5 -4 -5 -8 2 -11 18 -30 2 -34
-29 -2 -15 -8 -31 -13 -35 -4 -4 -5 -2 -1 5 4 7 1 12 -8 12 -10 0 -13 -7 -10
-25 6 -32 -4 -32 -16 0 -5 14 -16 25 -25 25 -8 0 -15 7 -15 17 0 9 -3 14 -6
10 -4 -3 -2 -20 4 -36 7 -19 7 -33 1 -36 -5 -4 -2 -13 6 -22 9 -8 13 -18 10
-21 -3 -4 -11 0 -16 8 -8 11 -12 12 -16 2 -2 -6 -9 -9 -15 -6 -6 4 -14 0 -19
-7 -6 -10 -9 -11 -9 -1 0 6 -4 12 -10 12 -5 0 -10 -7 -10 -15 0 -9 -11 -20
-25 -27 -13 -6 -22 -15 -19 -19 3 -5 -2 -6 -11 -3 -14 6 -14 8 2 20 16 12 16
13 -9 12 -26 -2 -33 -9 -29 -30 0 -5 -8 -8 -20 -8 -11 0 -17 -4 -14 -10 3 -6
-1 -7 -10 -3 -12 4 -13 8 -5 13 8 5 7 9 -5 13 -9 4 -18 1 -21 -7 -3 -8 -14
-13 -25 -11 -11 2 -17 0 -14 -6 13 -21 -7 -28 -33 -12 -15 9 -24 13 -20 8 14
-16 -12 -36 -33 -25 -14 8 -21 6 -31 -9 -10 -16 -15 -18 -27 -8 -12 10 -13 9
-6 -3 8 -13 7 -13 -8 -1 -18 14 -22 7 -18 -26 1 -7 -3 -13 -9 -13 -5 0 -10 8
-10 17 0 14 -4 13 -25 -7 -13 -12 -23 -28 -22 -34 1 -6 -5 -12 -13 -12 -8 -1
-19 -3 -25 -4 -5 -2 -17 -4 -25 -4 -9 -1 -14 -10 -13 -21 1 -19 0 -19 -17 3
-17 21 -37 31 -26 13 3 -4 -1 -17 -8 -27 -10 -13 -11 -24 -4 -37 8 -16 7 -17
-11 -8 -11 6 -24 10 -28 10 -4 -1 -16 1 -25 5 -20 9 -52 0 -44 -12 2 -4 -4
-14 -16 -21 -15 -9 -18 -10 -13 0 5 8 4 10 -3 5 -7 -4 -12 -14 -12 -22 0 -8
-7 -14 -15 -14 -8 0 -15 6 -15 13 0 8 -3 7 -10 -3 -5 -8 -12 -11 -16 -8 -12
12 -44 -12 -44 -33 0 -11 -10 -24 -22 -29 -21 -8 -22 -9 -3 -10 11 -1 14 -4 7
-7 -6 -2 -9 -9 -6 -15 4 -6 -2 -8 -16 -3 -14 4 -20 3 -16 -3 8 -13 -20 -36
-33 -27 -7 3 -8 0 -5 -9 7 -19 -7 -21 -23 -5 -9 9 -11 7 -6 -9 4 -17 1 -20
-18 -15 -17 5 -21 3 -16 -9 5 -14 -8 -17 -33 -8 -3 1 -9 2 -14 1 -5 -1 -6 5
-2 14 3 9 2 13 -4 10 -6 -4 -8 -17 -6 -30 4 -23 -7 -27 -31 -12 -13 8 -17 2
-14 -17 1 -5 -5 -4 -13 4 -9 7 -17 10 -17 6 -1 -3 -3 -10 -4 -16 -1 -5 -3 -14
-4 -18 0 -4 -13 -9 -27 -10 -15 -1 -34 -8 -43 -15 -14 -10 -14 -10 -3 4 11 14
9 17 -13 17 -13 0 -22 -4 -19 -9 3 -5 0 -9 -5 -9 -6 0 -11 -7 -11 -15 0 -8 -6
-12 -13 -9 -8 3 -20 -2 -27 -11 -7 -8 -17 -15 -22 -15 -5 0 -27 -14 -48 -31
-23 -19 -43 -28 -51 -24 -7 5 -10 4 -6 -2 4 -6 0 -13 -8 -17 -8 -3 -13 -11
-11 -18 1 -7 1 -10 -1 -5 -3 4 -9 5 -14 1 -5 -3 -9 0 -9 6 0 7 -5 6 -14 -2 -8
-7 -12 -15 -10 -17 5 -5 -47 -41 -59 -41 -5 0 -5 4 -2 10 3 6 1 10 -5 10 -6 0
-13 -7 -16 -15 -4 -8 -10 -12 -15 -9 -5 3 -9 -2 -9 -10 0 -8 -5 -18 -12 -22
-7 -4 -8 -3 -4 4 14 24 -6 11 -31 -18 -19 -23 -28 -28 -38 -20 -11 9 -12 6 -7
-12 5 -20 3 -21 -10 -10 -14 11 -16 10 -11 -10 3 -13 2 -20 -2 -16 -5 4 -14 3
-22 -3 -10 -9 -13 -6 -13 12 -1 24 -1 24 -18 -3 -9 -16 -22 -28 -29 -28 -7 0
-13 -6 -13 -14 0 -7 -9 -16 -20 -19 -11 -3 -18 -1 -14 4 3 5 0 9 -5 9 -6 0
-11 -4 -11 -10 0 -5 -8 -10 -17 -10 -15 0 -16 -2 -3 -10 12 -8 11 -11 -8 -16
-18 -5 -20 -9 -10 -15 10 -7 9 -9 -5 -9 -11 0 -15 -4 -11 -12 4 -6 3 -8 -4 -4
-6 3 -13 2 -17 -4 -4 -6 -11 -8 -16 -5 -5 4 -9 1 -9 -4 0 -6 -6 -11 -14 -11
-8 0 -22 -10 -30 -22 -9 -12 -16 -18 -16 -12 0 6 -7 19 -16 30 -8 10 -13 13
-9 7 3 -7 1 -13 -4 -13 -6 0 -11 -7 -11 -15 0 -8 -6 -15 -14 -15 -8 0 -21 -8
-28 -18 -19 -27 -39 -37 -31 -16 4 12 3 15 -5 10 -7 -4 -12 -16 -12 -27 0 -10
-5 -19 -11 -19 -5 0 -8 4 -5 8 3 5 -1 9 -9 9 -8 0 -13 -5 -12 -11 1 -5 -5 -11
-13 -11 -33 -2 -85 -36 -74 -48 3 -3 -3 -3 -15 0 -12 3 -21 1 -21 -6 0 -6 -7
-11 -15 -11 -8 0 -15 -5 -15 -11 0 -6 -6 -9 -14 -6 -7 3 -19 0 -25 -6 -6 -6
-11 -8 -11 -4 0 4 -9 -2 -20 -13 -12 -12 -25 -18 -30 -15 -5 3 -11 1 -15 -5
-3 -5 -17 -10 -31 -10 -17 0 -23 -4 -18 -12 5 -8 0 -9 -15 -5 -15 3 -24 -1
-32 -14 -7 -14 -17 -18 -36 -15 -14 3 -23 2 -19 -1 9 -10 -44 -33 -76 -33 -16
0 -27 -4 -24 -9 3 -5 -8 -7 -24 -6 -17 1 -30 0 -30 -4 0 -8 -71 -29 -111 -34
-15 -1 -33 -8 -41 -15 -8 -6 -31 -13 -50 -14 -20 -2 -34 -6 -32 -9 6 -11 -22
-18 -36 -9 -7 5 -23 4 -35 0 -14 -5 -27 -4 -34 3 -8 8 -11 8 -11 -1 0 -6 -6
-9 -14 -6 -8 3 -17 1 -21 -5 -3 -6 -14 -11 -23 -10 -11 0 -12 3 -4 6 6 2 12
10 12 16 -1 7 -9 2 -20 -11 l-19 -22 -14 21 c-8 11 -18 16 -21 11 -3 -6 0 -12
6 -15 9 -3 6 -7 -6 -13 -15 -5 -23 -2 -34 14 -14 21 -40 32 -27 12 3 -5 -1
-10 -9 -10 -8 0 -18 5 -22 11 -4 8 -9 7 -15 -2 -5 -8 -9 -9 -9 -4 0 6 -9 11
-20 11 -11 0 -20 -4 -20 -9 0 -4 -5 -5 -10 -2 -6 4 -7 12 -3 18 4 7 -2 5 -12
-3 -14 -11 -17 -11 -11 -1 7 11 0 12 -37 8 -25 -3 -48 -3 -51 1 -4 3 -14 7
-22 8 -9 1 -23 6 -32 10 -9 4 -28 9 -42 11 -13 2 -27 7 -30 11 -3 4 -18 9 -35
10 -16 2 -37 11 -47 19 -9 8 -25 16 -35 18 -10 1 -17 8 -16 13 2 6 -3 9 -11 6
-7 -3 -19 2 -26 11 -10 12 -16 13 -28 3 -10 -8 -13 -9 -9 -2 4 7 -3 14 -18 18
-13 3 -35 17 -49 31 -14 14 -33 25 -43 25 -10 0 -24 9 -31 20 -7 11 -19 20
-28 20 -8 0 -12 5 -9 10 3 6 0 10 -8 10 -18 0 -99 75 -90 83 3 4 1 7 -5 7 -7
0 -12 -6 -12 -12 0 -9 -3 -8 -9 2 -6 8 -7 18 -4 24 4 5 -1 7 -11 3 -14 -6 -16
-3 -10 15 5 17 3 20 -10 15 -10 -4 -15 -3 -13 1 7 10 -19 32 -29 24 -4 -4 -4
1 -1 11 4 11 3 16 -3 12 -6 -3 -10 -1 -10 5 0 6 -4 9 -8 6 -5 -3 -15 6 -22 19
-7 14 -17 25 -22 25 -15 0 -46 34 -50 55 -2 11 -16 26 -31 33 -15 7 -27 18
-27 25 0 11 -30 50 -79 103 -11 12 -17 24 -14 28 7 7 -22 36 -37 36 -6 0 -9 4
-6 9 3 5 -1 14 -9 21 -8 7 -15 18 -15 25 0 7 -15 32 -34 56 -18 24 -34 47 -35
52 -2 10 -3 16 -6 25 -2 4 -6 17 -10 30 -4 12 -12 22 -19 22 -6 0 -4 5 4 10
12 8 12 10 1 10 -8 0 -11 3 -8 7 4 3 -2 13 -14 21 -11 8 -18 20 -15 27 3 8 0
15 -5 17 -6 2 -13 21 -16 43 -3 22 -10 43 -17 47 -6 4 -8 8 -3 8 4 0 -4 18
-18 40 -16 25 -21 40 -13 40 7 0 2 7 -10 16 -12 8 -22 21 -21 27 3 15 -12 50
-22 57 -5 3 -11 24 -15 45 -3 22 -12 50 -19 61 -11 16 -11 24 -2 34 9 10 9 11
-2 5 -11 -6 -13 -4 -8 8 3 10 2 17 -3 17 -5 0 -6 7 -3 17 5 12 3 14 -8 8 -12
-8 -12 -6 0 9 12 14 12 19 1 29 -10 9 -11 9 -6 0 4 -7 3 -13 -3 -13 -5 0 -8
21 -7 49 3 40 0 48 -12 44 -12 -5 -12 -2 -3 16 10 17 9 22 -4 28 -13 4 -14 7
-3 14 10 7 10 14 -4 37 -10 16 -15 32 -11 36 3 3 2 6 -3 6 -5 0 -10 8 -10 18
-1 9 -5 26 -9 36 -6 14 -5 17 3 12 7 -4 12 -3 12 2 0 6 -6 12 -14 15 -8 3 -13
17 -11 36 1 17 -1 28 -6 25 -5 -3 -10 3 -10 13 -3 43 -8 61 -27 105 -12 26
-19 56 -17 68 4 22 -10 28 -18 8 -3 -7 -3 3 -1 22 16 131 16 128 -3 139 -10 6
-14 11 -9 11 5 0 3 7 -4 15 -10 12 -10 15 1 15 10 1 8 4 -3 11 -10 5 -18 16
-18 24 0 7 -8 21 -17 31 -16 16 -16 16 5 10 17 -6 22 -3 22 9 0 10 -5 13 -12
9 -8 -5 -7 0 2 11 9 12 10 16 2 11 -8 -5 -17 4 -27 28 -9 20 -20 36 -27 36 -6
0 -17 8 -25 18 -8 9 -11 11 -7 3 4 -9 3 -12 -4 -7 -6 4 -8 17 -3 34 10 35 4
52 -20 52 -10 0 -19 5 -19 10 0 6 5 10 10 10 6 0 10 7 10 15 0 8 -4 15 -10 15
-5 0 -10 -5 -10 -12 0 -6 -3 -8 -6 -5 -4 4 -1 14 6 23 11 12 11 17 1 23 -10 6
-9 12 4 25 9 9 11 16 5 16 -6 0 -8 5 -5 10 3 6 2 10 -4 10 -5 0 -8 9 -6 20 3
13 -2 20 -12 20 -12 0 -13 -3 -4 -14 9 -11 9 -16 0 -22 -7 -4 -9 -3 -6 3 4 6
-4 19 -16 31 -21 19 -26 22 -44 22 -4 0 -2 5 4 11 9 9 9 16 0 29 -8 14 -7 23
3 37 8 10 10 15 6 11 -5 -4 -15 -3 -22 2 -6 6 -16 10 -20 9 -5 -1 -16 -1 -24
0 -12 1 -12 4 3 12 21 13 22 25 1 33 -14 5 -15 4 -5 -8 11 -13 9 -13 -13 -3
-14 7 -21 14 -16 15 12 4 14 23 3 21 -20 -3 -24 2 -13 16 11 13 11 18 0 28
-10 10 -12 9 -7 -4 7 -22 -18 -20 -32 3 -8 13 -8 17 0 16 6 -2 13 4 14 13 2
11 -5 16 -26 16 -17 0 -35 5 -41 11 -9 9 -6 11 9 7 12 -2 24 2 26 10 4 8 0 11
-11 8 -10 -2 -22 5 -30 17 -10 17 -10 25 4 48 14 24 14 25 0 8 -9 -11 -16 -14
-16 -7 0 7 -4 9 -10 6 -6 -4 -10 6 -10 21 0 27 -1 27 -15 8 -15 -18 -15 -18
-8 0 5 15 3 17 -8 11 -12 -8 -12 -6 0 8 7 9 16 15 20 13 4 -3 13 -1 20 3 9 6
5 10 -13 13 -14 3 -23 1 -20 -3 3 -5 0 -9 -6 -9 -8 0 -10 9 -6 26 6 22 4 25
-9 20 -13 -4 -14 -2 -5 14 6 11 7 20 3 19 -20 -3 -54 15 -49 26 5 14 -9 39
-24 41 -5 1 -12 2 -15 3 -3 0 0 11 6 24 10 19 10 20 -2 11 -22 -18 -48 -13
-44 8 2 10 7 24 11 31 5 8 2 7 -9 -2 -15 -12 -17 -12 -11 3 4 11 1 16 -11 16
-9 0 -13 -4 -10 -10 3 -5 1 -10 -6 -10 -6 0 -9 8 -6 19 3 12 -1 18 -12 17 -9
-1 -17 8 -19 22 -2 15 -10 22 -27 22 -16 0 -25 7 -29 25 -4 16 -11 22 -21 19
-9 -4 -15 0 -15 10 0 8 -11 18 -25 22 -21 5 -24 11 -19 28 6 19 5 20 -11 6
-13 -10 -16 -11 -11 -2 5 8 1 19 -10 28 -18 15 -18 15 0 9 19 -6 19 -5 3 13
-9 10 -17 26 -17 36 0 9 -4 15 -9 11 -6 -3 -15 3 -21 12 -10 16 -11 16 -6 1 3
-12 1 -15 -9 -11 -8 3 -12 9 -9 14 3 5 -2 12 -10 15 -9 3 -13 11 -10 16 4 6
10 5 15 -3 6 -10 9 -8 9 8 0 16 -5 20 -18 16 -24 -6 -49 22 -27 31 8 3 15 0
15 -6 0 -6 3 -8 6 -5 10 10 -17 38 -29 30 -7 -4 -8 0 -4 11 6 14 3 17 -8 12
-11 -4 -19 3 -25 20 -13 33 -13 37 3 28 9 -6 9 -5 0 7 -10 12 -10 18 -1 27 9
9 9 12 -1 12 -7 0 -9 5 -6 10 3 6 -3 10 -14 10 -10 0 -22 6 -24 13 -4 9 -6 8
-6 -2 -2 -24 -53 40 -58 72 -3 19 -1 27 6 22 6 -3 11 -1 11 4 0 6 -6 11 -12
11 -9 0 -8 4 2 10 13 8 13 10 -1 10 -14 0 -29 18 -33 40 -4 18 -19 28 -33 23
-11 -4 -14 -3 -9 5 4 7 15 12 24 12 13 0 14 2 3 9 -7 5 -22 6 -34 3 -13 -3
-18 -1 -13 6 3 6 2 13 -3 17 -6 3 -8 12 -5 19 3 8 0 17 -5 21 -6 3 -8 11 -5
17 5 7 0 9 -12 6 -16 -4 -20 0 -20 18 0 12 4 20 8 18 5 -3 5 -10 2 -16 -4 -7
-2 -8 4 -4 9 5 7 14 -4 32 -15 22 -33 36 -19 15 3 -5 2 -12 -3 -15 -9 -5 -13
9 -14 57 0 15 -4 27 -8 27 -4 0 -6 11 -5 25 4 31 -10 41 -24 18 -14 -24 -14
-7 0 18 5 11 15 16 21 13 7 -4 8 -3 4 5 -4 6 -12 9 -17 6 -5 -4 -9 3 -9 14 0
12 -5 21 -11 21 -5 0 -7 5 -4 10 4 6 12 8 18 4 7 -3 4 1 -5 9 -10 8 -15 17
-11 20 3 4 0 21 -8 39 -10 24 -10 33 -1 36 7 2 9 9 5 15 -11 19 -9 68 4 63 8
-3 8 5 2 29 -8 28 -6 40 8 62 10 15 12 24 6 20 -7 -5 -13 -4 -13 2 0 5 4 11 8
13 5 2 12 18 15 36 4 20 3 31 -3 27 -6 -3 -7 1 -4 9 3 9 10 13 16 10 5 -3 8 0
7 7 -3 21 12 50 22 43 5 -3 9 2 9 10 0 9 3 16 8 16 4 0 23 29 42 65 19 36 41
65 48 65 6 0 12 5 12 11 0 16 41 50 52 43 4 -3 7 0 6 6 -2 7 6 17 17 23 11 7
32 25 48 41 15 16 27 26 27 21 0 -4 8 -1 18 7 19 18 94 57 103 54 3 0 12 4 20
10 19 16 175 80 219 90 45 10 38 8 88 23 24 7 60 14 80 16 20 2 37 4 37 5 0 2
38 9 77 14 20 2 41 7 47 10 5 4 31 8 58 11 56 5 89 11 102 20 5 3 13 0 16 -5
5 -8 14 -5 28 7 11 10 17 12 13 6 -9 -15 10 -18 19 -3 4 6 11 8 16 5 5 -4 9
-1 9 5 0 7 12 10 28 9 15 -2 33 0 40 4 6 5 12 6 12 4 0 -5 15 -2 145 33 94 25
94 25 119 14 13 -5 17 -4 13 3 -8 12 20 26 33 18 5 -3 11 -1 15 5 3 5 11 10
16 10 6 0 7 -4 4 -10 -3 -5 9 -3 27 4 18 7 40 12 48 11 8 -1 20 3 27 8 6 4 24
10 40 12 48 6 57 9 70 25 10 12 12 12 13 1 0 -11 3 -11 15 -1 8 6 18 9 23 6 5
-3 25 4 46 15 20 11 41 17 46 14 5 -3 18 -1 28 4 13 7 23 6 32 -2 7 -7 10 -7
7 -2 -3 6 -2 17 4 25 5 8 9 10 9 5 0 -6 9 -11 19 -11 11 0 18 3 15 7 -4 8 35
25 48 21 4 -1 19 3 33 8 18 7 25 6 25 -2 0 -7 7 -2 16 10 8 12 21 22 27 22 7
0 6 -4 -3 -10 -9 -6 -10 -10 -3 -10 6 0 15 5 18 11 4 6 14 8 24 5 12 -5 11 -2
-3 9 -18 14 -18 15 -2 15 10 0 14 5 10 11 -5 8 1 10 20 7 20 -4 26 -2 22 8 -3
8 -1 14 4 14 5 0 7 6 4 14 -3 8 -1 17 5 21 6 3 11 1 11 -5 0 -6 12 2 26 17 15
15 21 20 14 10 -11 -14 -10 -17 1 -12 8 3 19 15 24 27 6 12 18 23 29 24 10 1
24 8 30 15 8 9 7 10 -7 6 -12 -4 -16 -3 -11 4 3 6 15 9 25 6 11 -3 19 -1 19 3
0 5 9 12 20 15 11 4 18 11 15 16 -3 5 1 6 10 3 8 -4 21 -2 28 4 6 5 22 8 34 7
12 -1 22 1 21 4 -2 22 4 32 20 29 9 -2 22 3 28 11 8 10 26 14 51 13 29 -2 46
4 68 22 16 14 31 24 34 24 6 -1 25 5 69 23 15 6 21 6 17 -1 -3 -5 1 -10 9 -10
9 0 16 5 16 11 0 6 9 8 20 4 12 -4 27 -1 35 5 8 7 20 10 27 8 7 -3 19 1 26 9
7 7 28 13 45 14 47 1 102 6 102 8 0 6 164 13 275 12 198 -3 224 -5 238 -21 8
-8 11 -9 7 -2 -5 10 4 11 47 6 29 -4 63 -8 75 -9 12 0 25 -4 29 -8 4 -4 14 -1
22 6 13 9 14 9 8 0 -5 -10 3 -13 31 -14 21 -1 41 -1 46 0 4 0 7 -4 7 -10 0 -5
4 -8 8 -5 4 3 25 1 45 -4 21 -4 35 -4 32 1 -3 5 13 2 37 -7 23 -8 48 -12 55
-10 7 3 15 1 18 -4 3 -5 12 -7 20 -3 8 3 15 0 15 -6 0 -6 5 -11 11 -11 5 0 7
6 3 13 -4 6 3 3 16 -8 13 -11 20 -14 16 -7 -9 15 -5 15 31 0 29 -12 44 -15 91
-17 16 0 37 -9 48 -18 10 -10 33 -17 49 -17 17 1 36 -3 42 -8 7 -6 22 -8 33
-5 11 3 18 2 15 -3 -4 -7 49 -19 103 -23 12 -1 27 -9 32 -17 7 -10 10 -11 10
-2 0 6 5 12 11 12 5 0 8 -4 5 -9 -3 -4 13 -14 34 -21 22 -7 40 -16 40 -20 0
-4 20 -7 45 -6 25 0 45 4 45 9 0 4 5 7 10 7 6 0 10 -8 10 -17 0 -16 2 -16 11
-3 8 11 12 12 16 3 2 -7 9 -13 14 -13 44 0 -144 98 -342 178 -700 284 -1435
410 -2209 381z m-2183 -2611 c2 -18 0 -20 -7 -8 -12 18 -13 30 -2 30 4 0 9
-10 9 -22z m243 -390 c0 -6 -6 -5 -15 2 -8 7 -15 14 -15 16 0 2 7 1 15 -2 8
-4 15 -11 15 -16z m40 -32 c0 -11 -19 -15 -25 -6 -3 5 1 10 9 10 9 0 16 -2 16
-4z m196 -175 c-4 -5 0 -11 6 -14 7 -2 -2 -4 -21 -5 -35 -1 -35 -1 -10 13 31
17 31 17 25 6z m-1406 -691 c0 -5 -2 -10 -4 -10 -3 0 -8 5 -11 10 -3 6 -1 10
4 10 6 0 11 -4 11 -10z m29 -12 c-11 -20 -10 -22 3 -10 13 11 16 10 14 -5 0
-11 5 -17 13 -15 7 2 22 -4 31 -13 15 -13 16 -23 9 -48 -11 -39 -11 -39 -1
-34 4 3 7 -26 7 -64 0 -38 -3 -69 -6 -69 -4 0 -5 -29 -4 -65 2 -36 1 -65 -3
-65 -4 0 -7 -21 -6 -48 0 -26 -5 -58 -11 -72 -6 -14 -10 -42 -8 -62 2 -21 -1
-38 -7 -38 -5 0 -7 -7 -4 -15 4 -8 1 -22 -6 -30 -6 -8 -9 -23 -5 -34 3 -10 1
-22 -4 -26 -6 -3 -9 -19 -7 -36 3 -24 0 -29 -13 -25 -13 5 -12 3 2 -8 13 -10
15 -15 5 -18 -8 -3 -12 -18 -10 -41 2 -20 0 -37 -5 -37 -7 0 -11 -25 -16 -110
-1 -19 -6 -38 -11 -42 -12 -8 -14 -58 -2 -58 5 0 2 -8 -7 -18 -20 -22 -22 -33
-4 -28 6 1 9 1 4 -1 -4 -3 -4 -10 -1 -15 4 -6 2 -8 -3 -5 -15 9 -26 -23 -13
-38 5 -6 7 -15 3 -19 -4 -3 -8 -12 -9 -19 -1 -7 -4 -27 -7 -44 -3 -21 -1 -33
6 -34 9 0 9 -2 1 -5 -7 -3 -10 -13 -7 -23 3 -10 0 -22 -6 -25 -6 -4 -11 -13
-11 -19 0 -7 4 -6 10 3 8 12 10 13 10 1 0 -8 -7 -23 -17 -33 -9 -10 -12 -18
-7 -18 5 0 10 -9 10 -19 0 -11 -3 -18 -7 -15 -4 2 -9 -3 -13 -11 -3 -8 -2 -15
3 -15 4 0 8 -7 8 -15 0 -8 -3 -15 -7 -15 -3 0 -4 -15 -2 -34 2 -19 -1 -42 -6
-52 -7 -13 -7 -25 0 -37 7 -13 7 -17 0 -13 -13 8 -26 -29 -16 -45 5 -9 0 -10
-14 -7 -18 5 -22 2 -23 -20 0 -23 -2 -24 -8 -8 -7 17 -8 18 -14 3 -3 -9 -1
-19 5 -23 15 -10 -19 -27 -35 -18 -6 4 -9 4 -5 -1 4 -4 3 -16 -3 -26 -8 -16
-13 -17 -29 -6 -11 6 -20 20 -20 30 0 10 -4 16 -9 12 -6 -3 -8 8 -6 26 3 18 1
29 -2 25 -4 -4 -14 8 -23 26 -12 24 -14 39 -7 53 5 11 6 17 2 13 -12 -11 -35
40 -28 59 5 11 3 14 -6 8 -10 -6 -11 -3 -2 13 9 18 8 23 -10 32 -20 11 -20 12
-3 31 11 12 13 19 5 19 -8 0 -10 7 -6 20 4 12 1 28 -7 37 -11 14 -11 16 2 8
13 -7 13 -6 2 7 -7 8 -9 24 -5 33 4 11 2 16 -4 12 -6 -4 -9 6 -8 26 2 18 0 36
-3 41 -5 9 -5 45 2 133 1 17 -2 30 -6 27 -4 -3 -8 0 -8 5 0 6 3 11 8 11 4 0 7
30 7 68 0 37 4 73 9 80 5 8 4 12 -4 12 -9 0 -9 4 1 17 10 11 10 14 2 9 -7 -4
-13 -3 -13 3 0 5 5 13 10 16 6 4 10 14 9 23 -1 10 1 44 6 77 5 33 9 79 9 103
1 23 4 42 7 42 4 0 9 9 12 20 3 11 0 20 -5 20 -6 0 -5 6 2 15 7 8 10 24 7 34
-3 12 1 22 10 25 8 3 11 10 8 16 -3 5 0 10 7 11 7 0 4 4 -7 9 -19 8 -19 9 -1
9 15 1 16 4 6 16 -8 9 -8 15 -2 15 6 0 9 16 7 37 -2 24 0 32 6 22 7 -11 9 -10
10 6 1 11 1 23 0 28 -1 7 15 11 33 8 5 -1 6 5 3 12 -3 8 0 20 6 27 9 10 9 11
0 6 -8 -4 -7 2 2 21 8 15 13 42 11 58 -2 17 -1 22 1 13 2 -10 9 -18 15 -18 5
0 8 6 5 14 -3 7 0 19 6 26 9 10 9 11 0 6 -9 -5 -11 -2 -7 8 3 8 12 12 20 9 16
-6 19 18 3 34 -7 7 -6 12 5 16 9 4 16 2 16 -3 0 -6 5 -10 12 -10 9 0 9 3 0 12
-17 17 -15 48 4 48 9 0 13 -5 9 -12 -4 -7 2 -3 13 9 15 17 22 19 32 10 8 -8 8
-5 -1 11 -21 34 -1 58 46 55 22 -2 43 3 52 12 21 21 26 18 12 -7z m1911 -229
c0 -5 -4 -9 -8 -9 -5 0 -9 7 -9 15 0 8 4 12 9 9 4 -3 8 -9 8 -15z m5864 -560
c-3 -5 -10 -7 -15 -3 -5 3 -7 10 -3 15 3 5 10 7 15 3 5 -3 7 -10 3 -15z m-570
-340 c-8 -14 -21 -11 -21 5 0 8 6 12 14 9 7 -3 10 -9 7 -14z m40 -23 c-3 -9
-10 -13 -15 -10 -5 3 -3 11 4 19 15 16 19 13 11 -9z m-134 -34 c0 -15 -2 -15
-10 -2 -13 20 -13 33 0 25 6 -3 10 -14 10 -23z m-401 -180 c0 -11 -2 -13 -6
-4 -4 10 -9 9 -20 -5 -8 -10 -13 -13 -10 -8 2 6 7 18 10 28 8 22 27 13 26 -11z
m41 9 c0 -10 -6 -21 -14 -24 -15 -6 -16 9 -3 31 11 17 17 15 17 -7z m-164 -51
c0 -12 -4 -16 -9 -11 -5 5 -6 14 -3 20 10 15 12 14 12 -9z m-229 -126 c-3 -3
-12 -4 -19 -1 -8 3 -5 6 6 6 11 1 17 -2 13 -5z m-6492 -194 c3 -5 1 -10 -4
-10 -6 0 -11 5 -11 10 0 6 2 10 4 10 3 0 8 -4 11 -10z m-63 -72 c-6 -6 -15 -8
-19 -4 -4 4 -1 11 7 16 19 12 27 3 12 -12z m-53 -41 c0 -9 -2 -8 -6 1 -2 6
-10 9 -15 6 -7 -4 -8 -2 -4 5 9 13 26 5 25 -12z m5921 -76 c0 -6 -4 -13 -10
-16 -5 -3 -10 1 -10 9 0 9 5 16 10 16 6 0 10 -4 10 -9z m-470 -301 c0 -5 -5
-10 -11 -10 -5 0 -7 5 -4 10 3 6 8 10 11 10 2 0 4 -4 4 -10z m-227 -120 c-3
-11 -7 -20 -9 -20 -2 0 -4 9 -4 20 0 11 4 20 9 20 5 0 7 -9 4 -20z m-52 -33
c-10 -9 -11 -8 -5 6 3 10 9 15 12 12 3 -3 0 -11 -7 -18z"/>
<path d="M8735 8100 c1 -11 5 -23 10 -27 4 -5 5 -3 2 4 -4 6 -2 13 4 15 7 2 6
8 -3 16 -12 9 -14 8 -13 -8z"/>
<path d="M8316 6672 c-3 -5 1 -9 9 -9 8 0 12 4 9 9 -3 4 -7 8 -9 8 -2 0 -6 -4
-9 -8z"/>
<path d="M9537 9593 c-11 -11 -8 -20 7 -20 8 0 12 6 9 14 -6 15 -7 15 -16 6z"/>
<path d="M10015 8931 c-3 -5 -2 -12 3 -15 5 -3 9 1 9 9 0 17 -3 19 -12 6z"/>
<path d="M10435 8350 c-4 -6 -12 -7 -18 -4 -7 4 -8 3 -4 -1 13 -15 37 -14 37
1 0 16 -6 18 -15 4z"/>
<path d="M10415 8310 c-3 -6 1 -7 9 -4 9 3 16 1 16 -5 0 -6 7 -8 15 -4 9 3 13
8 10 11 -10 11 -44 12 -50 2z"/>
<path d="M16800 7910 c0 -5 5 -10 11 -10 5 0 7 5 4 10 -3 6 -8 10 -11 10 -2 0
-4 -4 -4 -10z"/>
<path d="M16063 7164 c0 -7 8 -12 17 -11 9 0 17 6 17 12 0 6 -8 11 -17 11 -9
0 -17 -6 -17 -12z"/>
<path d="M15810 7030 c0 -5 5 -10 11 -10 5 0 7 5 4 10 -3 6 -8 10 -11 10 -2 0
-4 -4 -4 -10z"/>
<path d="M15710 6980 c0 -5 7 -10 15 -10 9 0 12 -6 9 -15 -4 -8 -2 -15 4 -15
11 0 11 18 -1 38 -10 14 -27 16 -27 2z"/>
<path d="M15688 6948 c5 -5 16 -8 23 -6 8 3 3 7 -10 11 -17 4 -21 3 -13 -5z"/>
<path d="M15600 6920 c-9 -6 -10 -10 -3 -10 6 0 15 5 18 10 8 12 4 12 -15 0z"/>
<path d="M15630 6920 c0 -5 5 -10 11 -10 5 0 7 5 4 10 -3 6 -8 10 -11 10 -2 0
-4 -4 -4 -10z"/>
<path d="M14020 6069 c0 -5 5 -7 10 -4 6 3 10 8 10 11 0 2 -4 4 -10 4 -5 0
-10 -5 -10 -11z"/>
</g>
</svg>
